<?xml version="1.0" standalone="no"?>
<!DOCTYPE svg PUBLIC "-//W3C//DTD SVG 20010904//EN"
 "http://www.w3.org/TR/2001/REC-SVG-20010904/DTD/svg10.dtd">
<svg version="1.0" xmlns="http://www.w3.org/2000/svg"
 width="50" height="50" viewBox="120 200 960.000000 860.000000"
 preserveAspectRatio="xMidYMid meet">

<g transform="translate(0.000000,960.000000) scale(0.100000,-0.100000)"
fill="#ed1b24" stroke="none">
<path d="M6224 7382 c-226 -224 -619 -612 -873 -862 l-462 -455 3 -1212 3
-1213 136 133 c135 131 703 689 1307 1284 l312 308 0 1213 c0 666 -3 1212 -7
1212 -5 -1 -193 -184 -419 -408z"/>
<path d="M3584 5505 c3 -115 8 -392 11 -615 3 -223 8 -482 11 -577 l6 -172 72
-62 c39 -34 115 -103 170 -153 54 -50 104 -95 110 -101 40 -36 460 -418 501
-456 152 -139 277 -249 285 -249 6 0 9 290 10 738 l0 738 -92 89 c-51 49 -129
122 -173 164 -44 41 -123 116 -175 166 -52 50 -167 158 -255 240 -87 83 -200
188 -249 235 -49 47 -97 92 -106 100 -10 8 -43 40 -75 70 l-57 55 6 -210z"/>
<path d="M4100 2840 l0 -510 27 -24 c59 -52 618 -496 625 -496 4 0 8 201 8
447 l0 448 -322 322 c-178 178 -326 323 -330 323 -4 0 -8 -229 -8 -510z"/>
</g>
</svg>
